<svg width="507" height="184" viewBox="0 0 507 184" fill="none" xmlns="http://www.w3.org/2000/svg">
<g filter="url(#filter0_d)">
<path d="M57.1753 0.214844V20.8164H45.6089C45.6089 19.2461 45.562 17.8867 45.4683 16.7383C45.398 15.5664 45.2222 14.6289 44.9409 13.9258C44.6597 13.1992 44.2261 12.6719 43.6402 12.3438C43.0777 11.9922 42.3159 11.8164 41.355 11.8164H39.1753V35.0195C39.1753 36.543 39.6206 37.5859 40.5112 38.1484C41.4019 38.6875 42.8784 38.957 44.9409 38.957V52H12.7027V38.957C14.7652 38.957 16.23 38.6875 17.0972 38.1484C17.9878 37.5859 18.4331 36.543 18.4331 35.0195V11.8164H16.2886C15.3277 11.8164 14.5542 11.9922 13.9683 12.3438C13.4058 12.6719 12.9722 13.1992 12.6675 13.9258C12.3862 14.6289 12.2105 15.5664 12.1402 16.7383C12.0698 17.8867 12.0347 19.2461 12.0347 20.8164H0.433121V0.214844H57.1753ZM96.165 11.6758C99.2587 11.6758 101.767 12.1328 103.688 13.0469C105.634 13.9609 107.145 15.1211 108.224 16.5273C109.325 17.9102 110.075 19.4219 110.474 21.0625C110.872 22.6797 111.071 24.2031 111.071 25.6328V35.5117C111.071 36.7539 111.282 37.6445 111.704 38.1836C112.149 38.6992 112.993 38.957 114.235 38.957H116.134V52H91.8056V29.5352C91.8056 28.6211 91.6884 27.8945 91.4541 27.3555C91.2431 26.793 90.9619 26.3711 90.6103 26.0898C90.2822 25.7852 89.9072 25.5859 89.4853 25.4922C89.0634 25.3984 88.6533 25.3516 88.2548 25.3516C86.7314 25.3516 85.5947 25.7969 84.8447 26.6875C84.0947 27.5781 83.7197 28.8438 83.7197 30.4844V35.5117C83.7197 36.7539 83.9306 37.6445 84.3525 38.1836C84.7978 38.6992 85.6416 38.957 86.8837 38.957H89.4853V52H59.3916V38.957H61.4658C62.4267 38.957 63.1533 38.6523 63.6455 38.043C64.1611 37.4102 64.4189 36.6602 64.4189 35.793L64.3486 17.2305C64.3486 15.8711 63.915 14.875 63.0478 14.2422C62.2041 13.5859 61.2197 13.2578 60.0947 13.2578H59.3916V0.214844H83.7197V13.2578C83.7197 13.7031 83.5791 14.4766 83.2978 15.5781C83.0166 16.6797 82.4892 17.7812 81.7158 18.8828L82.4189 19.2344C83.6845 16.9375 85.3837 15.1094 87.5166 13.75C89.6494 12.3672 92.5322 11.6758 96.165 11.6758ZM136.913 34.8086C137.006 38.3008 137.663 40.7148 138.881 42.0508C140.123 43.3633 141.893 44.0195 144.19 44.0195C144.963 44.0195 145.713 43.9141 146.44 43.7031C147.19 43.4688 147.881 43.1055 148.514 42.6133C149.147 42.0977 149.686 41.4297 150.131 40.6094C150.6 39.7656 150.905 38.7109 151.045 37.4453H163.842C163.373 40.4688 162.506 43 161.241 45.0391C159.998 47.0781 158.393 48.7305 156.424 49.9961C154.455 51.2383 152.159 52.1289 149.534 52.668C146.932 53.2305 144.026 53.5117 140.815 53.5117C137.51 53.5117 134.405 53.0898 131.498 52.2461C128.592 51.4023 126.038 50.125 123.834 48.4141C121.655 46.6797 119.944 44.5117 118.702 41.9102C117.459 39.2852 116.838 36.168 116.838 32.5586C116.838 29.1133 117.424 26.0898 118.596 23.4883C119.768 20.8867 121.409 18.7188 123.518 16.9844C125.651 15.2266 128.159 13.9023 131.041 13.0117C133.948 12.1211 137.135 11.6758 140.604 11.6758C144.87 11.6758 148.538 12.2383 151.608 13.3633C154.678 14.4883 157.186 16.0586 159.131 18.0742C161.077 20.0898 162.506 22.5156 163.42 25.3516C164.334 28.1875 164.768 31.3398 164.721 34.8086H136.913ZM142.116 21.168C140.475 21.168 139.256 21.7539 138.459 22.9258C137.686 24.0742 137.17 25.9844 136.913 28.6562H147.213C147.073 26.3594 146.58 24.543 145.737 23.207C144.893 21.8477 143.686 21.168 142.116 21.168ZM186.38 52V38.957C188.443 38.957 189.919 38.6875 190.81 38.1484C191.7 37.5859 192.146 36.543 192.146 35.0195V17.2305C192.146 15.6836 191.7 14.6406 190.81 14.1016C189.919 13.5391 188.443 13.2578 186.38 13.2578V0.214844H235.036V20.1133H222.732C222.732 18.6602 222.661 17.5 222.521 16.6328C222.38 15.7422 222.111 15.0508 221.712 14.5586C221.337 14.043 220.822 13.7031 220.165 13.5391C219.533 13.3516 218.736 13.2578 217.775 13.2578H212.888V23.418H224.103V29.6055H212.888V35.0195C212.888 36.2617 213.193 37.2344 213.802 37.9375C214.435 38.6172 215.572 38.957 217.212 38.957H220.798V52H186.38ZM260.28 13.2578L259.682 22.9258H260.28C261.1 19.2227 262.46 16.4219 264.358 14.5234C266.28 12.625 268.764 11.6758 271.811 11.6758C273.616 11.6758 275.163 11.9687 276.452 12.5547C277.764 13.1172 278.819 13.8789 279.616 14.8398C280.413 15.8008 280.987 16.9141 281.339 18.1797C281.69 19.4219 281.866 20.7109 281.866 22.0469C281.866 23.1484 281.702 24.2383 281.374 25.3164C281.046 26.3945 280.518 27.3672 279.792 28.2344C279.065 29.1016 278.128 29.8047 276.979 30.3438C275.831 30.8594 274.413 31.1172 272.725 31.1172C270.382 31.1172 268.53 30.5195 267.171 29.3242C265.835 28.1289 265.167 26.6875 265.167 25C265.167 24.1797 265.26 23.4883 265.448 22.9258C265.635 22.3398 265.823 21.8711 266.01 21.5195C266.221 21.1445 266.362 20.875 266.432 20.7109C266.503 20.5469 266.421 20.4648 266.186 20.4648C265.694 20.4648 265.155 21.0273 264.569 22.1523C264.007 23.2773 263.725 25.0469 263.725 27.4609V35.5117C263.725 36.7539 263.936 37.6445 264.358 38.1836C264.803 38.6992 265.647 38.957 266.889 38.957H268.999V52H239.397V38.957H241.471C242.432 38.957 243.159 38.6523 243.651 38.043C244.167 37.4102 244.425 36.6602 244.425 35.793V29.1133C244.425 28.0117 244.096 27.2734 243.44 26.8984C242.807 26.5 242.081 26.3008 241.26 26.3008H239.397V13.2578H260.28ZM302.504 34.8086C302.598 38.3008 303.254 40.7148 304.473 42.0508C305.715 43.3633 307.484 44.0195 309.781 44.0195C310.555 44.0195 311.305 43.9141 312.031 43.7031C312.781 43.4688 313.473 43.1055 314.106 42.6133C314.738 42.0977 315.277 41.4297 315.723 40.6094C316.192 39.7656 316.496 38.7109 316.637 37.4453H329.434C328.965 40.4688 328.098 43 326.832 45.0391C325.59 47.0781 323.984 48.7305 322.016 49.9961C320.047 51.2383 317.75 52.1289 315.125 52.668C312.524 53.2305 309.617 53.5117 306.406 53.5117C303.102 53.5117 299.996 53.0898 297.09 52.2461C294.184 51.4023 291.629 50.125 289.426 48.4141C287.246 46.6797 285.535 44.5117 284.293 41.9102C283.051 39.2852 282.43 36.168 282.43 32.5586C282.43 29.1133 283.016 26.0898 284.188 23.4883C285.359 20.8867 287 18.7188 289.109 16.9844C291.242 15.2266 293.75 13.9023 296.633 13.0117C299.539 12.1211 302.727 11.6758 306.195 11.6758C310.461 11.6758 314.129 12.2383 317.199 13.3633C320.27 14.4883 322.777 16.0586 324.723 18.0742C326.668 20.0898 328.098 22.5156 329.012 25.3516C329.926 28.1875 330.359 31.3398 330.313 34.8086H302.504ZM307.707 21.168C306.067 21.168 304.848 21.7539 304.051 22.9258C303.277 24.0742 302.762 25.9844 302.504 28.6562H312.805C312.664 26.3594 312.172 24.543 311.328 23.207C310.484 21.8477 309.277 21.168 307.707 21.168ZM365.681 29.5352C365.681 28.6211 365.564 27.8945 365.33 27.3555C365.119 26.793 364.838 26.3711 364.486 26.0898C364.158 25.7852 363.783 25.5859 363.361 25.4922C362.939 25.3984 362.529 25.3516 362.13 25.3516C360.607 25.3516 359.47 25.7969 358.72 26.6875C357.97 27.5781 357.595 28.8438 357.595 30.4844V35.5117C357.595 36.7539 357.806 37.6445 358.228 38.1836C358.673 38.6992 359.517 38.957 360.759 38.957H362.658V52H333.267V38.957H335.341C336.302 38.957 337.029 38.6523 337.521 38.043C338.037 37.4102 338.295 36.6602 338.295 35.793V29.1133C338.295 28.0117 337.966 27.2734 337.31 26.8984C336.677 26.5 335.951 26.3008 335.13 26.3008H333.267V13.2578H354.15L353.412 22.9258H354.009C354.525 19.3164 356.107 16.5391 358.755 14.5938C361.404 12.6484 365.002 11.6758 369.548 11.6758C372.759 11.6758 375.373 12.1328 377.388 13.0469C379.404 13.9609 380.963 15.1211 382.064 16.5273C383.189 17.9102 383.951 19.4219 384.349 21.0625C384.748 22.6797 384.947 24.2031 384.947 25.6328V35.5117C384.947 36.7539 385.158 37.6445 385.58 38.1836C386.025 38.6992 386.869 38.957 388.111 38.957H390.009V52H365.681V29.5352ZM416.976 21.168C414.96 21.168 413.413 22.0234 412.335 23.7344C411.257 25.4453 410.718 28.293 410.718 32.2773C410.718 36.2617 411.269 39.0977 412.37 40.7852C413.495 42.4492 415.206 43.2812 417.503 43.2812C418.159 43.2812 418.827 43.1758 419.507 42.9648C420.187 42.7539 420.796 42.4492 421.335 42.0508C421.898 41.6289 422.355 41.1016 422.706 40.4688C423.081 39.8125 423.292 39.0508 423.339 38.1836H434.694C433.944 43.4102 431.835 47.2773 428.366 49.7852C424.921 52.2695 419.999 53.5117 413.601 53.5117C410.39 53.5117 407.39 53.0898 404.601 52.2461C401.812 51.4023 399.386 50.125 397.323 48.4141C395.261 46.6797 393.644 44.5117 392.472 41.9102C391.3 39.2852 390.714 36.168 390.714 32.5586C390.714 29.1133 391.3 26.0898 392.472 23.4883C393.644 20.8867 395.284 18.7188 397.394 16.9844C399.526 15.2266 402.034 13.9023 404.917 13.0117C407.823 12.1211 411.011 11.6758 414.48 11.6758C418.159 11.6758 421.265 12.1328 423.796 13.0469C426.327 13.9609 428.366 15.1094 429.913 16.4922C431.483 17.8516 432.597 19.3281 433.253 20.9219C433.933 22.4922 434.273 23.9688 434.273 25.3516C434.273 26.4531 434.108 27.5312 433.78 28.5859C433.476 29.6406 432.96 30.6016 432.233 31.4688C431.53 32.3359 430.628 33.0391 429.526 33.5781C428.425 34.0938 427.077 34.3516 425.483 34.3516C423.96 34.3516 422.718 34.1406 421.757 33.7188C420.796 33.2734 420.046 32.7344 419.507 32.1016C418.991 31.4453 418.616 30.7656 418.382 30.0625C418.171 29.3359 418.065 28.6562 418.065 28.0234C418.065 26.5938 418.405 25.457 419.085 24.6133C419.765 23.7695 420.55 23.1836 421.44 22.8555C420.925 22.457 420.398 22.082 419.858 21.7305C419.343 21.3555 418.382 21.168 416.976 21.168ZM474.598 11.6758C477.692 11.6758 480.2 12.1328 482.122 13.0469C484.067 13.9609 485.579 15.1211 486.657 16.5273C487.758 17.9102 488.508 19.4219 488.907 21.0625C489.305 22.6797 489.504 24.2031 489.504 25.6328V35.5117C489.504 36.7539 489.715 37.6445 490.137 38.1836C490.583 38.6992 491.426 38.957 492.668 38.957H494.567V52H470.239V29.5352C470.239 28.6211 470.122 27.8945 469.887 27.3555C469.676 26.793 469.395 26.3711 469.043 26.0898C468.715 25.7852 468.34 25.5859 467.918 25.4922C467.497 25.3984 467.086 25.3516 466.688 25.3516C465.165 25.3516 464.028 25.7969 463.278 26.6875C462.528 27.5781 462.153 28.8438 462.153 30.4844V35.5117C462.153 36.7539 462.364 37.6445 462.786 38.1836C463.231 38.6992 464.075 38.957 465.317 38.957H467.918V52H437.825V38.957H439.899C440.86 38.957 441.586 38.6523 442.079 38.043C442.594 37.4102 442.852 36.6602 442.852 35.793L442.782 17.2305C442.782 15.8711 442.348 14.875 441.481 14.2422C440.637 13.5859 439.653 13.2578 438.528 13.2578H437.825V0.214844H462.153V13.2578C462.153 13.7031 462.012 14.4766 461.731 15.5781C461.45 16.6797 460.922 17.7812 460.149 18.8828L460.852 19.2344C462.118 16.9375 463.817 15.1094 465.95 13.75C468.083 12.3672 470.965 11.6758 474.598 11.6758ZM104.639 105.258C102.577 105.258 101.1 105.539 100.209 106.102C99.3422 106.641 98.9086 107.684 98.9086 109.23V130.957H105.94C106.901 130.957 107.709 130.863 108.366 130.676C109.022 130.488 109.537 130.102 109.912 129.516C110.287 128.906 110.545 128.062 110.686 126.984C110.85 125.906 110.932 124.477 110.932 122.695H123.237V144H72.4008V130.957C74.4633 130.957 75.9398 130.688 76.8305 130.148C77.7211 129.586 78.1664 128.543 78.1664 127.02V109.23C78.1664 107.684 77.7211 106.641 76.8305 106.102C75.9398 105.539 74.4633 105.258 72.4008 105.258V92.2148H104.639V105.258ZM143.453 110.145C142.258 110.145 141.226 110.238 140.359 110.426C139.515 110.59 138.789 110.789 138.18 111.023C137.57 111.258 137.066 111.527 136.668 111.832C136.269 112.113 135.918 112.371 135.613 112.605L135.965 112.957C136.41 112.723 136.89 112.488 137.406 112.254C137.945 112.02 138.625 111.902 139.445 111.902C140.828 111.902 142.023 112.359 143.031 113.273C144.039 114.164 144.543 115.594 144.543 117.562C144.543 119.438 143.769 120.949 142.223 122.098C140.699 123.223 138.648 123.785 136.07 123.785C133.609 123.785 131.64 123.082 130.164 121.676C128.711 120.246 127.984 118.23 127.984 115.629C127.984 114.199 128.383 112.781 129.18 111.375C129.976 109.945 131.207 108.668 132.871 107.543C134.558 106.418 136.691 105.492 139.269 104.766C141.871 104.039 145 103.676 148.656 103.676C153.015 103.676 156.578 104.086 159.344 104.906C162.109 105.727 164.254 106.781 165.777 108.07C167.324 109.359 168.379 110.824 168.941 112.465C169.527 114.105 169.82 115.758 169.82 117.422V131.168C169.82 133.301 169.89 134.754 170.031 135.527C170.172 136.277 170.699 136.652 171.613 136.652C172.34 136.652 172.844 136.312 173.125 135.633C173.43 134.93 173.582 133.734 173.582 132.047V127.652H177.59V132.117C177.59 134.227 177.414 136.102 177.062 137.742C176.711 139.359 176.043 140.754 175.058 141.926C174.074 143.074 172.738 143.941 171.051 144.527C169.363 145.137 167.207 145.441 164.582 145.441C162.215 145.441 160.246 145.184 158.676 144.668C157.129 144.176 155.898 143.555 154.984 142.805C154.07 142.055 153.414 141.281 153.015 140.484C152.64 139.664 152.453 138.938 152.453 138.305H151.89C151.75 139.266 151.34 140.18 150.66 141.047C150.004 141.914 149.078 142.688 147.883 143.367C146.711 144.023 145.293 144.551 143.629 144.949C141.988 145.371 140.113 145.582 138.004 145.582C135.988 145.582 134.148 145.383 132.484 144.984C130.844 144.609 129.437 144.012 128.265 143.191C127.117 142.348 126.215 141.27 125.558 139.957C124.926 138.621 124.609 137.039 124.609 135.211C124.609 132.961 125.242 131.191 126.508 129.902C127.773 128.59 129.367 127.559 131.289 126.809C133.211 126.035 135.297 125.414 137.547 124.945C139.82 124.453 141.918 123.867 143.84 123.188C145.762 122.508 147.355 121.629 148.621 120.551C149.887 119.473 150.519 117.949 150.519 115.98C150.519 114.223 149.969 112.816 148.867 111.762C147.765 110.684 145.961 110.145 143.453 110.145ZM150.519 125.367C150.004 126.117 149.359 126.727 148.586 127.195C147.812 127.641 147.062 128.086 146.336 128.531C145.633 128.953 145.012 129.469 144.473 130.078C143.957 130.664 143.699 131.461 143.699 132.469C143.699 133.242 143.91 133.945 144.332 134.578C144.754 135.188 145.574 135.492 146.793 135.492C147.894 135.492 148.785 135.07 149.465 134.227C150.168 133.359 150.519 132.152 150.519 130.605V125.367ZM228.005 128.145C228.005 129.27 228.322 130.02 228.954 130.395C229.611 130.77 230.349 130.957 231.169 130.957H233.033V144H212.15V134.367H211.587C211.048 137.953 209.583 140.672 207.193 142.523C204.802 144.375 201.322 145.301 196.751 145.301C193.54 145.301 190.927 144.844 188.911 143.93C186.896 143.016 185.337 141.867 184.236 140.484C183.134 139.078 182.372 137.566 181.95 135.949C181.552 134.309 181.353 132.773 181.353 131.344V121.746C181.353 120.504 181.13 119.625 180.685 119.109C180.263 118.57 179.431 118.301 178.189 118.301H176.079V105.258H200.654V127.441C200.654 128.355 200.759 129.094 200.97 129.656C201.181 130.195 201.45 130.617 201.779 130.922C202.13 131.203 202.517 131.391 202.939 131.484C203.384 131.578 203.794 131.625 204.169 131.625C205.716 131.625 206.853 131.18 207.579 130.289C208.329 129.398 208.704 128.133 208.704 126.492V121.746C208.704 120.504 208.482 119.625 208.036 119.109C207.615 118.57 206.783 118.301 205.54 118.301H203.466V105.258H228.005V128.145ZM268.366 121.535C268.366 120.621 268.249 119.895 268.014 119.355C267.803 118.793 267.522 118.371 267.171 118.09C266.842 117.785 266.467 117.586 266.046 117.492C265.624 117.398 265.214 117.352 264.815 117.352C263.292 117.352 262.155 117.797 261.405 118.688C260.655 119.578 260.28 120.844 260.28 122.484V127.512C260.28 128.754 260.491 129.645 260.913 130.184C261.358 130.699 262.202 130.957 263.444 130.957H265.342V144H235.952V130.957H238.026C238.987 130.957 239.714 130.652 240.206 130.043C240.721 129.41 240.979 128.66 240.979 127.793V121.113C240.979 120.012 240.651 119.273 239.995 118.898C239.362 118.5 238.635 118.301 237.815 118.301H235.952V105.258H256.835L256.096 114.926H256.694C257.21 111.316 258.792 108.539 261.44 106.594C264.089 104.648 267.686 103.676 272.233 103.676C275.444 103.676 278.057 104.133 280.073 105.047C282.089 105.961 283.647 107.121 284.749 108.527C285.874 109.91 286.635 111.422 287.034 113.062C287.432 114.68 287.632 116.203 287.632 117.633V127.512C287.632 128.754 287.842 129.645 288.264 130.184C288.71 130.699 289.553 130.957 290.796 130.957H292.694V144H268.366V121.535ZM342.582 92.2148V128.074C342.582 129.035 342.84 129.762 343.356 130.254C343.895 130.723 344.645 130.957 345.606 130.957H347.61V144H323.985V137.602H323.422C323.047 138.609 322.496 139.57 321.77 140.484C321.043 141.398 320.152 142.207 319.098 142.91C318.043 143.59 316.789 144.129 315.336 144.527C313.906 144.949 312.277 145.16 310.449 145.16C304.707 145.16 300.36 143.426 297.406 139.957C294.453 136.465 292.977 131.355 292.977 124.629C292.977 117.902 294.559 112.91 297.723 109.652C300.887 106.395 305.235 104.766 310.766 104.766C312.242 104.766 313.567 104.883 314.738 105.117C315.91 105.352 316.977 105.656 317.938 106.031C318.899 106.383 319.813 106.793 320.68 107.262C321.547 107.707 322.414 108.141 323.281 108.562V107.297C323.281 106.031 323.059 105.141 322.613 104.625C322.192 104.086 321.36 103.816 320.117 103.816H318.254V92.2148H342.582ZM312.981 124.98C312.981 126.246 313.051 127.441 313.192 128.566C313.332 129.691 313.59 130.676 313.965 131.52C314.363 132.363 314.879 133.02 315.512 133.488C316.168 133.957 317.024 134.191 318.078 134.191C319.133 134.191 320 133.969 320.68 133.523C321.36 133.078 321.887 132.457 322.262 131.66C322.66 130.863 322.93 129.914 323.07 128.812C323.211 127.711 323.281 126.539 323.281 125.297V117.352C322.695 116.789 321.91 116.32 320.926 115.945C319.942 115.547 318.992 115.348 318.078 115.348C317.024 115.348 316.168 115.617 315.512 116.156C314.879 116.672 314.363 117.375 313.965 118.266C313.59 119.156 313.332 120.188 313.192 121.359C313.051 122.531 312.981 123.738 312.981 124.98ZM371.728 105.258L371.13 114.926H371.728C372.548 111.223 373.908 108.422 375.806 106.523C377.728 104.625 380.212 103.676 383.259 103.676C385.064 103.676 386.611 103.969 387.9 104.555C389.212 105.117 390.267 105.879 391.064 106.84C391.861 107.801 392.435 108.914 392.787 110.18C393.138 111.422 393.314 112.711 393.314 114.047C393.314 115.148 393.15 116.238 392.822 117.316C392.494 118.395 391.966 119.367 391.24 120.234C390.513 121.102 389.576 121.805 388.427 122.344C387.279 122.859 385.861 123.117 384.173 123.117C381.83 123.117 379.978 122.52 378.619 121.324C377.283 120.129 376.615 118.688 376.615 117C376.615 116.18 376.709 115.488 376.896 114.926C377.084 114.34 377.271 113.871 377.459 113.52C377.669 113.145 377.81 112.875 377.88 112.711C377.951 112.547 377.869 112.465 377.634 112.465C377.142 112.465 376.603 113.027 376.017 114.152C375.455 115.277 375.173 117.047 375.173 119.461V127.512C375.173 128.754 375.384 129.645 375.806 130.184C376.252 130.699 377.095 130.957 378.337 130.957H380.447V144H350.845V130.957H352.919C353.88 130.957 354.607 130.652 355.099 130.043C355.615 129.41 355.873 128.66 355.873 127.793V121.113C355.873 120.012 355.544 119.273 354.888 118.898C354.255 118.5 353.529 118.301 352.709 118.301H350.845V105.258H371.728ZM426.116 146.883C425.319 148.617 424.499 150.469 423.655 152.438C422.812 154.406 421.698 156.223 420.315 157.887C418.956 159.574 417.198 160.969 415.042 162.07C412.886 163.172 410.073 163.723 406.605 163.723C404.167 163.723 402.034 163.406 400.206 162.773C398.378 162.164 396.866 161.332 395.671 160.277C394.476 159.223 393.585 158.004 392.999 156.621C392.437 155.262 392.155 153.867 392.155 152.438C392.155 149.602 393.023 147.363 394.757 145.723C396.515 144.105 398.694 143.297 401.296 143.297C402.819 143.297 404.097 143.52 405.128 143.965C406.159 144.41 407.003 144.984 407.659 145.688C408.315 146.391 408.773 147.164 409.03 148.008C409.288 148.852 409.417 149.648 409.417 150.398C409.417 152.086 408.995 153.375 408.151 154.266C407.331 155.156 406.335 155.719 405.163 155.953C405.257 156.047 405.409 156.117 405.62 156.164C405.901 156.305 406.476 156.375 407.343 156.375C408.163 156.375 408.89 156.164 409.523 155.742C410.179 155.344 410.765 154.84 411.28 154.23C411.819 153.645 412.276 153 412.651 152.297C413.05 151.617 413.366 150.984 413.601 150.398L413.671 150.188L398.694 121.324C398.46 120.785 398.202 120.328 397.921 119.953C397.663 119.578 397.335 119.273 396.937 119.039C396.562 118.781 396.081 118.594 395.495 118.477C394.933 118.359 394.218 118.301 393.351 118.301V105.258H421.581V118.301C420.105 118.301 419.132 118.523 418.663 118.969C418.218 119.391 418.183 120.059 418.558 120.973L422.812 130.043L426.925 120.973C427.3 120.152 427.253 119.508 426.784 119.039C426.339 118.547 425.378 118.301 423.901 118.301V105.258H443.483V118.301C441.749 118.301 440.53 118.547 439.827 119.039C439.148 119.508 438.562 120.27 438.069 121.324L426.116 146.883Z" fill="white"/>
<path d="M57.1753 0.214844V20.8164H45.6089C45.6089 19.2461 45.562 17.8867 45.4683 16.7383C45.398 15.5664 45.2222 14.6289 44.9409 13.9258C44.6597 13.1992 44.2261 12.6719 43.6402 12.3438C43.0777 11.9922 42.3159 11.8164 41.355 11.8164H39.1753V35.0195C39.1753 36.543 39.6206 37.5859 40.5112 38.1484C41.4019 38.6875 42.8784 38.957 44.9409 38.957V52H12.7027V38.957C14.7652 38.957 16.23 38.6875 17.0972 38.1484C17.9878 37.5859 18.4331 36.543 18.4331 35.0195V11.8164H16.2886C15.3277 11.8164 14.5542 11.9922 13.9683 12.3438C13.4058 12.6719 12.9722 13.1992 12.6675 13.9258C12.3862 14.6289 12.2105 15.5664 12.1402 16.7383C12.0698 17.8867 12.0347 19.2461 12.0347 20.8164H0.433121V0.214844H57.1753ZM96.165 11.6758C99.2587 11.6758 101.767 12.1328 103.688 13.0469C105.634 13.9609 107.145 15.1211 108.224 16.5273C109.325 17.9102 110.075 19.4219 110.474 21.0625C110.872 22.6797 111.071 24.2031 111.071 25.6328V35.5117C111.071 36.7539 111.282 37.6445 111.704 38.1836C112.149 38.6992 112.993 38.957 114.235 38.957H116.134V52H91.8056V29.5352C91.8056 28.6211 91.6884 27.8945 91.4541 27.3555C91.2431 26.793 90.9619 26.3711 90.6103 26.0898C90.2822 25.7852 89.9072 25.5859 89.4853 25.4922C89.0634 25.3984 88.6533 25.3516 88.2548 25.3516C86.7314 25.3516 85.5947 25.7969 84.8447 26.6875C84.0947 27.5781 83.7197 28.8438 83.7197 30.4844V35.5117C83.7197 36.7539 83.9306 37.6445 84.3525 38.1836C84.7978 38.6992 85.6416 38.957 86.8837 38.957H89.4853V52H59.3916V38.957H61.4658C62.4267 38.957 63.1533 38.6523 63.6455 38.043C64.1611 37.4102 64.4189 36.6602 64.4189 35.793L64.3486 17.2305C64.3486 15.8711 63.915 14.875 63.0478 14.2422C62.2041 13.5859 61.2197 13.2578 60.0947 13.2578H59.3916V0.214844H83.7197V13.2578C83.7197 13.7031 83.5791 14.4766 83.2978 15.5781C83.0166 16.6797 82.4892 17.7812 81.7158 18.8828L82.4189 19.2344C83.6845 16.9375 85.3837 15.1094 87.5166 13.75C89.6494 12.3672 92.5322 11.6758 96.165 11.6758ZM136.913 34.8086C137.006 38.3008 137.663 40.7148 138.881 42.0508C140.123 43.3633 141.893 44.0195 144.19 44.0195C144.963 44.0195 145.713 43.9141 146.44 43.7031C147.19 43.4688 147.881 43.1055 148.514 42.6133C149.147 42.0977 149.686 41.4297 150.131 40.6094C150.6 39.7656 150.905 38.7109 151.045 37.4453H163.842C163.373 40.4688 162.506 43 161.241 45.0391C159.998 47.0781 158.393 48.7305 156.424 49.9961C154.455 51.2383 152.159 52.1289 149.534 52.668C146.932 53.2305 144.026 53.5117 140.815 53.5117C137.51 53.5117 134.405 53.0898 131.498 52.2461C128.592 51.4023 126.038 50.125 123.834 48.4141C121.655 46.6797 119.944 44.5117 118.702 41.9102C117.459 39.2852 116.838 36.168 116.838 32.5586C116.838 29.1133 117.424 26.0898 118.596 23.4883C119.768 20.8867 121.409 18.7188 123.518 16.9844C125.651 15.2266 128.159 13.9023 131.041 13.0117C133.948 12.1211 137.135 11.6758 140.604 11.6758C144.87 11.6758 148.538 12.2383 151.608 13.3633C154.678 14.4883 157.186 16.0586 159.131 18.0742C161.077 20.0898 162.506 22.5156 163.42 25.3516C164.334 28.1875 164.768 31.3398 164.721 34.8086H136.913ZM142.116 21.168C140.475 21.168 139.256 21.7539 138.459 22.9258C137.686 24.0742 137.17 25.9844 136.913 28.6562H147.213C147.073 26.3594 146.58 24.543 145.737 23.207C144.893 21.8477 143.686 21.168 142.116 21.168ZM186.38 52V38.957C188.443 38.957 189.919 38.6875 190.81 38.1484C191.7 37.5859 192.146 36.543 192.146 35.0195V17.2305C192.146 15.6836 191.7 14.6406 190.81 14.1016C189.919 13.5391 188.443 13.2578 186.38 13.2578V0.214844H235.036V20.1133H222.732C222.732 18.6602 222.661 17.5 222.521 16.6328C222.38 15.7422 222.111 15.0508 221.712 14.5586C221.337 14.043 220.822 13.7031 220.165 13.5391C219.533 13.3516 218.736 13.2578 217.775 13.2578H212.888V23.418H224.103V29.6055H212.888V35.0195C212.888 36.2617 213.193 37.2344 213.802 37.9375C214.435 38.6172 215.572 38.957 217.212 38.957H220.798V52H186.38ZM260.28 13.2578L259.682 22.9258H260.28C261.1 19.2227 262.46 16.4219 264.358 14.5234C266.28 12.625 268.764 11.6758 271.811 11.6758C273.616 11.6758 275.163 11.9687 276.452 12.5547C277.764 13.1172 278.819 13.8789 279.616 14.8398C280.413 15.8008 280.987 16.9141 281.339 18.1797C281.69 19.4219 281.866 20.7109 281.866 22.0469C281.866 23.1484 281.702 24.2383 281.374 25.3164C281.046 26.3945 280.518 27.3672 279.792 28.2344C279.065 29.1016 278.128 29.8047 276.979 30.3438C275.831 30.8594 274.413 31.1172 272.725 31.1172C270.382 31.1172 268.53 30.5195 267.171 29.3242C265.835 28.1289 265.167 26.6875 265.167 25C265.167 24.1797 265.26 23.4883 265.448 22.9258C265.635 22.3398 265.823 21.8711 266.01 21.5195C266.221 21.1445 266.362 20.875 266.432 20.7109C266.503 20.5469 266.421 20.4648 266.186 20.4648C265.694 20.4648 265.155 21.0273 264.569 22.1523C264.007 23.2773 263.725 25.0469 263.725 27.4609V35.5117C263.725 36.7539 263.936 37.6445 264.358 38.1836C264.803 38.6992 265.647 38.957 266.889 38.957H268.999V52H239.397V38.957H241.471C242.432 38.957 243.159 38.6523 243.651 38.043C244.167 37.4102 244.425 36.6602 244.425 35.793V29.1133C244.425 28.0117 244.096 27.2734 243.44 26.8984C242.807 26.5 242.081 26.3008 241.26 26.3008H239.397V13.2578H260.28ZM302.504 34.8086C302.598 38.3008 303.254 40.7148 304.473 42.0508C305.715 43.3633 307.484 44.0195 309.781 44.0195C310.555 44.0195 311.305 43.9141 312.031 43.7031C312.781 43.4688 313.473 43.1055 314.106 42.6133C314.738 42.0977 315.277 41.4297 315.723 40.6094C316.192 39.7656 316.496 38.7109 316.637 37.4453H329.434C328.965 40.4688 328.098 43 326.832 45.0391C325.59 47.0781 323.984 48.7305 322.016 49.9961C320.047 51.2383 317.75 52.1289 315.125 52.668C312.524 53.2305 309.617 53.5117 306.406 53.5117C303.102 53.5117 299.996 53.0898 297.09 52.2461C294.184 51.4023 291.629 50.125 289.426 48.4141C287.246 46.6797 285.535 44.5117 284.293 41.9102C283.051 39.2852 282.43 36.168 282.43 32.5586C282.43 29.1133 283.016 26.0898 284.188 23.4883C285.359 20.8867 287 18.7188 289.109 16.9844C291.242 15.2266 293.75 13.9023 296.633 13.0117C299.539 12.1211 302.727 11.6758 306.195 11.6758C310.461 11.6758 314.129 12.2383 317.199 13.3633C320.27 14.4883 322.777 16.0586 324.723 18.0742C326.668 20.0898 328.098 22.5156 329.012 25.3516C329.926 28.1875 330.359 31.3398 330.313 34.8086H302.504ZM307.707 21.168C306.067 21.168 304.848 21.7539 304.051 22.9258C303.277 24.0742 302.762 25.9844 302.504 28.6562H312.805C312.664 26.3594 312.172 24.543 311.328 23.207C310.484 21.8477 309.277 21.168 307.707 21.168ZM365.681 29.5352C365.681 28.6211 365.564 27.8945 365.33 27.3555C365.119 26.793 364.838 26.3711 364.486 26.0898C364.158 25.7852 363.783 25.5859 363.361 25.4922C362.939 25.3984 362.529 25.3516 362.13 25.3516C360.607 25.3516 359.47 25.7969 358.72 26.6875C357.97 27.5781 357.595 28.8438 357.595 30.4844V35.5117C357.595 36.7539 357.806 37.6445 358.228 38.1836C358.673 38.6992 359.517 38.957 360.759 38.957H362.658V52H333.267V38.957H335.341C336.302 38.957 337.029 38.6523 337.521 38.043C338.037 37.4102 338.295 36.6602 338.295 35.793V29.1133C338.295 28.0117 337.966 27.2734 337.31 26.8984C336.677 26.5 335.951 26.3008 335.13 26.3008H333.267V13.2578H354.15L353.412 22.9258H354.009C354.525 19.3164 356.107 16.5391 358.755 14.5938C361.404 12.6484 365.002 11.6758 369.548 11.6758C372.759 11.6758 375.373 12.1328 377.388 13.0469C379.404 13.9609 380.963 15.1211 382.064 16.5273C383.189 17.9102 383.951 19.4219 384.349 21.0625C384.748 22.6797 384.947 24.2031 384.947 25.6328V35.5117C384.947 36.7539 385.158 37.6445 385.58 38.1836C386.025 38.6992 386.869 38.957 388.111 38.957H390.009V52H365.681V29.5352ZM416.976 21.168C414.96 21.168 413.413 22.0234 412.335 23.7344C411.257 25.4453 410.718 28.293 410.718 32.2773C410.718 36.2617 411.269 39.0977 412.37 40.7852C413.495 42.4492 415.206 43.2812 417.503 43.2812C418.159 43.2812 418.827 43.1758 419.507 42.9648C420.187 42.7539 420.796 42.4492 421.335 42.0508C421.898 41.6289 422.355 41.1016 422.706 40.4688C423.081 39.8125 423.292 39.0508 423.339 38.1836H434.694C433.944 43.4102 431.835 47.2773 428.366 49.7852C424.921 52.2695 419.999 53.5117 413.601 53.5117C410.39 53.5117 407.39 53.0898 404.601 52.2461C401.812 51.4023 399.386 50.125 397.323 48.4141C395.261 46.6797 393.644 44.5117 392.472 41.9102C391.3 39.2852 390.714 36.168 390.714 32.5586C390.714 29.1133 391.3 26.0898 392.472 23.4883C393.644 20.8867 395.284 18.7188 397.394 16.9844C399.526 15.2266 402.034 13.9023 404.917 13.0117C407.823 12.1211 411.011 11.6758 414.48 11.6758C418.159 11.6758 421.265 12.1328 423.796 13.0469C426.327 13.9609 428.366 15.1094 429.913 16.4922C431.483 17.8516 432.597 19.3281 433.253 20.9219C433.933 22.4922 434.273 23.9688 434.273 25.3516C434.273 26.4531 434.108 27.5312 433.78 28.5859C433.476 29.6406 432.96 30.6016 432.233 31.4688C431.53 32.3359 430.628 33.0391 429.526 33.5781C428.425 34.0938 427.077 34.3516 425.483 34.3516C423.96 34.3516 422.718 34.1406 421.757 33.7188C420.796 33.2734 420.046 32.7344 419.507 32.1016C418.991 31.4453 418.616 30.7656 418.382 30.0625C418.171 29.3359 418.065 28.6562 418.065 28.0234C418.065 26.5938 418.405 25.457 419.085 24.6133C419.765 23.7695 420.55 23.1836 421.44 22.8555C420.925 22.457 420.398 22.082 419.858 21.7305C419.343 21.3555 418.382 21.168 416.976 21.168ZM474.598 11.6758C477.692 11.6758 480.2 12.1328 482.122 13.0469C484.067 13.9609 485.579 15.1211 486.657 16.5273C487.758 17.9102 488.508 19.4219 488.907 21.0625C489.305 22.6797 489.504 24.2031 489.504 25.6328V35.5117C489.504 36.7539 489.715 37.6445 490.137 38.1836C490.583 38.6992 491.426 38.957 492.668 38.957H494.567V52H470.239V29.5352C470.239 28.6211 470.122 27.8945 469.887 27.3555C469.676 26.793 469.395 26.3711 469.043 26.0898C468.715 25.7852 468.34 25.5859 467.918 25.4922C467.497 25.3984 467.086 25.3516 466.688 25.3516C465.165 25.3516 464.028 25.7969 463.278 26.6875C462.528 27.5781 462.153 28.8438 462.153 30.4844V35.5117C462.153 36.7539 462.364 37.6445 462.786 38.1836C463.231 38.6992 464.075 38.957 465.317 38.957H467.918V52H437.825V38.957H439.899C440.86 38.957 441.586 38.6523 442.079 38.043C442.594 37.4102 442.852 36.6602 442.852 35.793L442.782 17.2305C442.782 15.8711 442.348 14.875 441.481 14.2422C440.637 13.5859 439.653 13.2578 438.528 13.2578H437.825V0.214844H462.153V13.2578C462.153 13.7031 462.012 14.4766 461.731 15.5781C461.45 16.6797 460.922 17.7812 460.149 18.8828L460.852 19.2344C462.118 16.9375 463.817 15.1094 465.95 13.75C468.083 12.3672 470.965 11.6758 474.598 11.6758ZM104.639 105.258C102.577 105.258 101.1 105.539 100.209 106.102C99.3422 106.641 98.9086 107.684 98.9086 109.23V130.957H105.94C106.901 130.957 107.709 130.863 108.366 130.676C109.022 130.488 109.537 130.102 109.912 129.516C110.287 128.906 110.545 128.062 110.686 126.984C110.85 125.906 110.932 124.477 110.932 122.695H123.237V144H72.4008V130.957C74.4633 130.957 75.9398 130.688 76.8305 130.148C77.7211 129.586 78.1664 128.543 78.1664 127.02V109.23C78.1664 107.684 77.7211 106.641 76.8305 106.102C75.9398 105.539 74.4633 105.258 72.4008 105.258V92.2148H104.639V105.258ZM143.453 110.145C142.258 110.145 141.226 110.238 140.359 110.426C139.515 110.59 138.789 110.789 138.18 111.023C137.57 111.258 137.066 111.527 136.668 111.832C136.269 112.113 135.918 112.371 135.613 112.605L135.965 112.957C136.41 112.723 136.89 112.488 137.406 112.254C137.945 112.02 138.625 111.902 139.445 111.902C140.828 111.902 142.023 112.359 143.031 113.273C144.039 114.164 144.543 115.594 144.543 117.562C144.543 119.438 143.769 120.949 142.223 122.098C140.699 123.223 138.648 123.785 136.07 123.785C133.609 123.785 131.64 123.082 130.164 121.676C128.711 120.246 127.984 118.23 127.984 115.629C127.984 114.199 128.383 112.781 129.18 111.375C129.976 109.945 131.207 108.668 132.871 107.543C134.558 106.418 136.691 105.492 139.269 104.766C141.871 104.039 145 103.676 148.656 103.676C153.015 103.676 156.578 104.086 159.344 104.906C162.109 105.727 164.254 106.781 165.777 108.07C167.324 109.359 168.379 110.824 168.941 112.465C169.527 114.105 169.82 115.758 169.82 117.422V131.168C169.82 133.301 169.89 134.754 170.031 135.527C170.172 136.277 170.699 136.652 171.613 136.652C172.34 136.652 172.844 136.312 173.125 135.633C173.43 134.93 173.582 133.734 173.582 132.047V127.652H177.59V132.117C177.59 134.227 177.414 136.102 177.062 137.742C176.711 139.359 176.043 140.754 175.058 141.926C174.074 143.074 172.738 143.941 171.051 144.527C169.363 145.137 167.207 145.441 164.582 145.441C162.215 145.441 160.246 145.184 158.676 144.668C157.129 144.176 155.898 143.555 154.984 142.805C154.07 142.055 153.414 141.281 153.015 140.484C152.64 139.664 152.453 138.938 152.453 138.305H151.89C151.75 139.266 151.34 140.18 150.66 141.047C150.004 141.914 149.078 142.688 147.883 143.367C146.711 144.023 145.293 144.551 143.629 144.949C141.988 145.371 140.113 145.582 138.004 145.582C135.988 145.582 134.148 145.383 132.484 144.984C130.844 144.609 129.437 144.012 128.265 143.191C127.117 142.348 126.215 141.27 125.558 139.957C124.926 138.621 124.609 137.039 124.609 135.211C124.609 132.961 125.242 131.191 126.508 129.902C127.773 128.59 129.367 127.559 131.289 126.809C133.211 126.035 135.297 125.414 137.547 124.945C139.82 124.453 141.918 123.867 143.84 123.188C145.762 122.508 147.355 121.629 148.621 120.551C149.887 119.473 150.519 117.949 150.519 115.98C150.519 114.223 149.969 112.816 148.867 111.762C147.765 110.684 145.961 110.145 143.453 110.145ZM150.519 125.367C150.004 126.117 149.359 126.727 148.586 127.195C147.812 127.641 147.062 128.086 146.336 128.531C145.633 128.953 145.012 129.469 144.473 130.078C143.957 130.664 143.699 131.461 143.699 132.469C143.699 133.242 143.91 133.945 144.332 134.578C144.754 135.188 145.574 135.492 146.793 135.492C147.894 135.492 148.785 135.07 149.465 134.227C150.168 133.359 150.519 132.152 150.519 130.605V125.367ZM228.005 128.145C228.005 129.27 228.322 130.02 228.954 130.395C229.611 130.77 230.349 130.957 231.169 130.957H233.033V144H212.15V134.367H211.587C211.048 137.953 209.583 140.672 207.193 142.523C204.802 144.375 201.322 145.301 196.751 145.301C193.54 145.301 190.927 144.844 188.911 143.93C186.896 143.016 185.337 141.867 184.236 140.484C183.134 139.078 182.372 137.566 181.95 135.949C181.552 134.309 181.353 132.773 181.353 131.344V121.746C181.353 120.504 181.13 119.625 180.685 119.109C180.263 118.57 179.431 118.301 178.189 118.301H176.079V105.258H200.654V127.441C200.654 128.355 200.759 129.094 200.97 129.656C201.181 130.195 201.45 130.617 201.779 130.922C202.13 131.203 202.517 131.391 202.939 131.484C203.384 131.578 203.794 131.625 204.169 131.625C205.716 131.625 206.853 131.18 207.579 130.289C208.329 129.398 208.704 128.133 208.704 126.492V121.746C208.704 120.504 208.482 119.625 208.036 119.109C207.615 118.57 206.783 118.301 205.54 118.301H203.466V105.258H228.005V128.145ZM268.366 121.535C268.366 120.621 268.249 119.895 268.014 119.355C267.803 118.793 267.522 118.371 267.171 118.09C266.842 117.785 266.467 117.586 266.046 117.492C265.624 117.398 265.214 117.352 264.815 117.352C263.292 117.352 262.155 117.797 261.405 118.688C260.655 119.578 260.28 120.844 260.28 122.484V127.512C260.28 128.754 260.491 129.645 260.913 130.184C261.358 130.699 262.202 130.957 263.444 130.957H265.342V144H235.952V130.957H238.026C238.987 130.957 239.714 130.652 240.206 130.043C240.721 129.41 240.979 128.66 240.979 127.793V121.113C240.979 120.012 240.651 119.273 239.995 118.898C239.362 118.5 238.635 118.301 237.815 118.301H235.952V105.258H256.835L256.096 114.926H256.694C257.21 111.316 258.792 108.539 261.44 106.594C264.089 104.648 267.686 103.676 272.233 103.676C275.444 103.676 278.057 104.133 280.073 105.047C282.089 105.961 283.647 107.121 284.749 108.527C285.874 109.91 286.635 111.422 287.034 113.062C287.432 114.68 287.632 116.203 287.632 117.633V127.512C287.632 128.754 287.842 129.645 288.264 130.184C288.71 130.699 289.553 130.957 290.796 130.957H292.694V144H268.366V121.535ZM342.582 92.2148V128.074C342.582 129.035 342.84 129.762 343.356 130.254C343.895 130.723 344.645 130.957 345.606 130.957H347.61V144H323.985V137.602H323.422C323.047 138.609 322.496 139.57 321.77 140.484C321.043 141.398 320.152 142.207 319.098 142.91C318.043 143.59 316.789 144.129 315.336 144.527C313.906 144.949 312.277 145.16 310.449 145.16C304.707 145.16 300.36 143.426 297.406 139.957C294.453 136.465 292.977 131.355 292.977 124.629C292.977 117.902 294.559 112.91 297.723 109.652C300.887 106.395 305.235 104.766 310.766 104.766C312.242 104.766 313.567 104.883 314.738 105.117C315.91 105.352 316.977 105.656 317.938 106.031C318.899 106.383 319.813 106.793 320.68 107.262C321.547 107.707 322.414 108.141 323.281 108.562V107.297C323.281 106.031 323.059 105.141 322.613 104.625C322.192 104.086 321.36 103.816 320.117 103.816H318.254V92.2148H342.582ZM312.981 124.98C312.981 126.246 313.051 127.441 313.192 128.566C313.332 129.691 313.59 130.676 313.965 131.52C314.363 132.363 314.879 133.02 315.512 133.488C316.168 133.957 317.024 134.191 318.078 134.191C319.133 134.191 320 133.969 320.68 133.523C321.36 133.078 321.887 132.457 322.262 131.66C322.66 130.863 322.93 129.914 323.07 128.812C323.211 127.711 323.281 126.539 323.281 125.297V117.352C322.695 116.789 321.91 116.32 320.926 115.945C319.942 115.547 318.992 115.348 318.078 115.348C317.024 115.348 316.168 115.617 315.512 116.156C314.879 116.672 314.363 117.375 313.965 118.266C313.59 119.156 313.332 120.188 313.192 121.359C313.051 122.531 312.981 123.738 312.981 124.98ZM371.728 105.258L371.13 114.926H371.728C372.548 111.223 373.908 108.422 375.806 106.523C377.728 104.625 380.212 103.676 383.259 103.676C385.064 103.676 386.611 103.969 387.9 104.555C389.212 105.117 390.267 105.879 391.064 106.84C391.861 107.801 392.435 108.914 392.787 110.18C393.138 111.422 393.314 112.711 393.314 114.047C393.314 115.148 393.15 116.238 392.822 117.316C392.494 118.395 391.966 119.367 391.24 120.234C390.513 121.102 389.576 121.805 388.427 122.344C387.279 122.859 385.861 123.117 384.173 123.117C381.83 123.117 379.978 122.52 378.619 121.324C377.283 120.129 376.615 118.688 376.615 117C376.615 116.18 376.709 115.488 376.896 114.926C377.084 114.34 377.271 113.871 377.459 113.52C377.669 113.145 377.81 112.875 377.88 112.711C377.951 112.547 377.869 112.465 377.634 112.465C377.142 112.465 376.603 113.027 376.017 114.152C375.455 115.277 375.173 117.047 375.173 119.461V127.512C375.173 128.754 375.384 129.645 375.806 130.184C376.252 130.699 377.095 130.957 378.337 130.957H380.447V144H350.845V130.957H352.919C353.88 130.957 354.607 130.652 355.099 130.043C355.615 129.41 355.873 128.66 355.873 127.793V121.113C355.873 120.012 355.544 119.273 354.888 118.898C354.255 118.5 353.529 118.301 352.709 118.301H350.845V105.258H371.728ZM426.116 146.883C425.319 148.617 424.499 150.469 423.655 152.438C422.812 154.406 421.698 156.223 420.315 157.887C418.956 159.574 417.198 160.969 415.042 162.07C412.886 163.172 410.073 163.723 406.605 163.723C404.167 163.723 402.034 163.406 400.206 162.773C398.378 162.164 396.866 161.332 395.671 160.277C394.476 159.223 393.585 158.004 392.999 156.621C392.437 155.262 392.155 153.867 392.155 152.438C392.155 149.602 393.023 147.363 394.757 145.723C396.515 144.105 398.694 143.297 401.296 143.297C402.819 143.297 404.097 143.52 405.128 143.965C406.159 144.41 407.003 144.984 407.659 145.688C408.315 146.391 408.773 147.164 409.03 148.008C409.288 148.852 409.417 149.648 409.417 150.398C409.417 152.086 408.995 153.375 408.151 154.266C407.331 155.156 406.335 155.719 405.163 155.953C405.257 156.047 405.409 156.117 405.62 156.164C405.901 156.305 406.476 156.375 407.343 156.375C408.163 156.375 408.89 156.164 409.523 155.742C410.179 155.344 410.765 154.84 411.28 154.23C411.819 153.645 412.276 153 412.651 152.297C413.05 151.617 413.366 150.984 413.601 150.398L413.671 150.188L398.694 121.324C398.46 120.785 398.202 120.328 397.921 119.953C397.663 119.578 397.335 119.273 396.937 119.039C396.562 118.781 396.081 118.594 395.495 118.477C394.933 118.359 394.218 118.301 393.351 118.301V105.258H421.581V118.301C420.105 118.301 419.132 118.523 418.663 118.969C418.218 119.391 418.183 120.059 418.558 120.973L422.812 130.043L426.925 120.973C427.3 120.152 427.253 119.508 426.784 119.039C426.339 118.547 425.378 118.301 423.901 118.301V105.258H443.483V118.301C441.749 118.301 440.53 118.547 439.827 119.039C439.148 119.508 438.562 120.27 438.069 121.324L426.116 146.883Z" fill="white" fill-opacity="0.2"/>
</g>
<defs>
<filter id="filter0_d" x="0.433105" y="0.214844" width="506.134" height="183.508" filterUnits="userSpaceOnUse" color-interpolation-filters="sRGB">
<feFlood flood-opacity="0" result="BackgroundImageFix"/>
<feColorMatrix in="SourceAlpha" type="matrix" values="0 0 0 0 0 0 0 0 0 0 0 0 0 0 0 0 0 0 127 0" result="hardAlpha"/>
<feOffset dx="8" dy="16"/>
<feGaussianBlur stdDeviation="2"/>
<feComposite in2="hardAlpha" operator="out"/>
<feColorMatrix type="matrix" values="0 0 0 0 0 0 0 0 0 0 0 0 0 0 0 0 0 0 0.25 0"/>
<feBlend mode="normal" in2="BackgroundImageFix" result="effect1_dropShadow"/>
<feBlend mode="normal" in="SourceGraphic" in2="effect1_dropShadow" result="shape"/>
</filter>
</defs>
</svg>
